<?xml version="1.0" encoding="utf-8"?>
<!-- Generator: Adobe Illustrator 21.0.0, SVG Export Plug-In . SVG Version: 6.00 Build 0)  -->
<svg version="1.1" baseProfile="tiny" id="Capa_1" xmlns="http://www.w3.org/2000/svg" xmlns:xlink="http://www.w3.org/1999/xlink"
	 x="0px" y="0px" viewBox="0 0 512 512" overflow="scroll" xml:space="preserve">
<g>
	<path fill="#48B0FF" d="M455.1,0H56.9C25.5,0,0,25.5,0,56.9v398.2C0,486.5,25.5,512,56.9,512h398.2c31.4,0,56.9-25.5,56.9-56.9
		V56.9C512,25.5,486.5,0,455.1,0z M259,338.5L119.2,154.2h-0.9v164.5c0,22.1-14.1,34.4-33.1,34.4c-19,0-33.1-12.3-33.1-34.4V68.2h0
		c0-22,14.1-34.4,33.1-34.4c8.4,0,22,6.6,27.8,14.5l139.8,186.6h0.9V68.2c0-22,14.1-34.4,33.1-34.4c19,0,33.1,12.3,33.1,34.4v250.5
		c0,22.1-14.1,34.4-33.1,34.4C278.4,353.1,265.2,346.5,259,338.5z M466.1,395.3L466.1,395.3c0,74.1-47.2,93.5-87.3,93.5
		c-30.4,0-81.1-11.9-81.1-50.3c0-11.9,10.1-26.9,24.7-26.9c17.6,0,33.1,16.3,52.9,16.3c24.7,0,24.7-22.9,24.7-37.1V201.2
		c0-22,14.1-34.4,33.1-34.4c19,0,33.1,12.3,33.1,34.4V395.3z"/>
</g>
</svg>
