<?xml version="1.0" encoding="utf-8"?>
<!-- Generator: Adobe Illustrator 21.0.0, SVG Export Plug-In . SVG Version: 6.00 Build 0)  -->
<svg version="1.1" id="Capa_x5F_1" xmlns="http://www.w3.org/2000/svg" xmlns:xlink="http://www.w3.org/1999/xlink" x="0px" y="0px"
	 viewBox="0 0 579.3 418.7" style="enable-background:new 0 0 579.3 418.7;" xml:space="preserve">
<style type="text/css">
	.st0{fill:none;stroke:#000000;stroke-width:2;stroke-miterlimit:10;}
</style>
<polygon class="st0" points="147.2,67.3 179.4,36 269.2,20 375.4,27 421.7,52.5 388.4,84.3 298.4,100 193.4,92.8 "/>
<path class="st0" d="M161.5,41.1"/>
<path class="st0" d="M236.8,25.8L179.2,6.1L161.5,41l15-2.2c0.3-0.2,3-2.9,3-2.9L236.8,25.8z"/>
<polygon class="st0" points="193.4,92.8 199.1,362 305.2,370.5 298.4,100 "/>
<polyline class="st0" points="144.1,120.1 102.7,96.9 79.8,100 "/>
<polygon class="st0" points="79.8,100 5.7,370.5 69.7,388.5 144.1,120.1 "/>
<polyline class="st0" points="130.1,170.4 120.2,206.1 125.7,209.3 132.3,204.1 "/>
<path class="st0" d="M189.2,291.9l-11,8.9l-52.5-91.5l6.6-5.2c1,0.1,1.9,0.2,2.9,0.3c9.9-3.1,15.9-11.8,14.9-20
	c-0.9-7.5-7.4-11.8-8.5-12.5c-3.8-0.5-7.6-1-11.4-1.5l-9.1,32.6c3.8,0.4,7.6,0.7,11.4,1.1"/>
<polygon class="st0" points="174.2,298.8 178.2,300.8 125.7,209.3 120.2,206.1 117.5,215.9 162.7,292.8 165.2,293.5 174.9,309.3 
	182.2,313.3 "/>
<polygon class="st0" points="32.5,272.7 40.7,327.7 82.7,341.6 84.5,334.9 46.7,322.3 36.4,258.4 "/>
<polyline class="st0" points="151.9,274.4 153.3,337.7 199.1,362 197.1,266.6 "/>
<polyline class="st0" points="197.1,266.6 193.4,92.8 147.2,67.3 150,190.2 "/>
<polyline class="st0" points="159.3,202.2 157.3,127 185.3,141.7 188.2,251.3 188.1,251.3 151.5,189 149.5,190.6 151.5,189 
	149.9,187.5 "/>
<polyline class="st0" points="161.6,290.9 162.3,320.3 190.3,336.3 188.2,251.3 "/>
<path class="st0" d="M390.6,121.9"/>
<polyline class="st0" points="390.6,121.9 388.4,84.3 298.4,100 305.2,370.5 367.8,359.4 "/>
<polyline class="st0" points="331.5,148.8 318.6,150.7 322.7,345.5 364.1,338.3 "/>
<polyline class="st0" points="390.6,121.9 328.7,132.5 331.5,148.8 364.3,339.5 367.8,359.4 "/>
<line class="st0" x1="418.6" y1="283.5" x2="390.6" y2="121.9"/>
<polyline class="st0" points="367.8,359.4 376.7,411 438.7,399.5 421.3,299.3 "/>
<polyline class="st0" points="421.3,299.3 438.7,399.5 457,395.9 408.8,118 390.6,121.9 418.6,283.5 "/>
<path class="st0" d="M189.2,291.9c-2.6,2.1-5.3,4.2-7.9,6.4c-0.6,1.3-2.1,4.7-1.4,9.1c0.4,2.7,1.6,4.8,2.3,5.9l7.7,4.4L189.2,291.9"
	/>
<path class="st0" d="M174.9,309.3l-9.8-15.8c-0.3,1-0.6,2-0.8,3c0.1,1.1,0.4,5.7,4.2,9.3C170.9,308.2,173.6,309,174.9,309.3z"/>
<polyline class="st0" points="179.6,311.8 162.3,320.3 190.3,336.3 189.9,317.7 "/>
<polyline class="st0" points="131.1,238.7 125.7,274 149.3,270 "/>
<line class="st0" x1="148.5" y1="125.5" x2="141.4" y2="171.8"/>
<polyline class="st0" points="176.4,38.9 161.5,41.1 159.3,55.5 "/>
<polygon class="st0" points="467.7,63.5 489.2,28.5 426.1,40.5 "/>
<polygon class="st0" points="555.2,304.8 576.7,268.5 489.2,28.5 467.7,63.5 "/>
<polyline class="st0" points="464.1,147 512.2,281.5 555.2,304.8 467.7,63.5 426.1,40.5 446.3,97 "/>
<polygon class="st0" points="550.2,235.1 537.4,255.9 539.3,261.1 554.4,237.9 546.9,186.8 540,167.9 "/>
<line class="st0" x1="390.6" y1="121.9" x2="390.7" y2="123.6"/>
<polyline class="st0" points="423.9,113.7 421.7,52.5 388.4,84.3 390.6,121.9 "/>
<line class="st0" x1="428.1" y1="229.5" x2="423.9" y2="113.7"/>
<polyline class="st0" points="342.8,214.7 322.7,288.4 336.7,310.3 350.8,262.2 "/>
<path class="st0" d="M327.9,296.5h-6.2l1,33.3l15.5-3c3.3-5,4.6-10.4,3.4-16.4"/>
<polyline class="st0" points="351,261.3 336.7,310.3 343.9,310.3 340.8,321.6 355.9,320 358.4,310.3 359.3,310.3 "/>
<path class="st0" d="M425.8,165.7"/>
<path class="st0" d="M428.7,232.6c8.7-20,36.4-83,36.4-83l-5.5-2.3"/>
<path class="st0" d="M457,116.7l17.9-10.3l10,29l-19.8,11.5c0,0-2.4,0.7-5.5,0.4c-2.4-0.2-5.3-1-7.7-3.3c-1.4-1.3-2.6-3.1-3.6-5.5
	C443.6,126.6,457,116.7,457,116.7"/>
<path class="st0" d="M424.2,123.6c0.6,2.8,1.7,4.7,2.9,6.1"/>
<path class="st0" d="M424,115.8c1.4-9.5,9.3-12.2,9.3-12.2l12.9-6.7l28.6,9.4"/>
<path class="st0" d="M340.8,321.6"/>
<path class="st0" d="M355.9,320c0.5,0.7,0.1,2-1.6,4.1l7.1-1.3"/>
<circle class="st0" cx="246.3" cy="123.6" r="14.3"/>
<circle class="st0" cx="247.8" cy="178" r="8.7"/>
<path class="st0" d="M451.9,144c-2.1-0.5-7.4-2.1-10.3-6.9c-2.7-4.4-2.7-10.3-0.1-16"/>
<path class="st0" d="M424.5,130.7l1.6,1.3l7.3-16c0,0,2-5.2,7.4-8.3l0,0l7.7,4.2l0,0c-3.2,2.7-5.5,5.9-6.9,9.1l-7.1,15.6l4.3,1.8
	L426.2,165l-0.2,0.6l12.8-27.2L452,144"/>
<line class="st0" x1="130.9" y1="167.6" x2="138.9" y2="171.5"/>
<polyline class="st0" points="368,360.8 408,354.3 421.3,299.3 436.7,348.7 448.5,347 447.4,340.7 438.7,342 418.6,283.5 404,348.5 
	366.9,354.5 "/>
</svg>
